<?xml version="1.0" standalone="no"?>
<!DOCTYPE svg PUBLIC "-//W3C//DTD SVG 20010904//EN"
 "http://www.w3.org/TR/2001/REC-SVG-20010904/DTD/svg10.dtd">
<svg version="1.0" xmlns="http://www.w3.org/2000/svg"
 width="803.000000pt" height="817.000000pt" viewBox="0 0 803.000000 817.000000"
 preserveAspectRatio="xMidYMid meet">

<g transform="translate(0.000000,817.000000) scale(0.100000,-0.100000)"
fill="#000000" stroke="none">
<path d="M159 8115 c-85 -46 -46 -180 53 -180 99 0 122 137 31 184 -28 14 -52
13 -84 -4z"/>
<path d="M634 7936 c-28 -28 -34 -41 -34 -77 0 -59 18 -90 63 -113 47 -22 58
-15 24 16 -40 35 -44 72 -13 102 31 32 78 34 105 5 21 -23 41 -90 41 -141 0
-65 -52 -223 -98 -295 -14 -22 -15 -21 -43 37 -28 55 -157 197 -201 221 -16 9
-18 5 -18 -30 0 -22 -14 -78 -31 -123 -39 -108 -47 -200 -22 -288 l18 -65 60
-5 c102 -9 194 -72 239 -162 14 -29 26 -48 26 -42 0 5 48 9 113 9 105 0 116 2
178 31 85 41 138 89 177 161 31 59 62 152 62 186 0 18 -1 18 -26 -2 -36 -29
-109 -40 -275 -44 l-147 -3 42 33 c22 19 101 64 175 100 151 74 204 118 221
185 14 49 7 105 -15 127 -13 14 -15 12 -15 -15 0 -42 -32 -96 -69 -118 -18
-10 -58 -24 -89 -31 -32 -7 -69 -16 -83 -19 l-26 -7 -5 89 c-6 105 -37 184
-96 246 -46 48 -87 66 -153 66 -45 0 -55 -4 -85 -34z m-96 -403 c32 -63 56
-132 50 -138 -2 -3 -16 7 -30 20 l-26 24 -11 -31 c-6 -17 -11 -43 -12 -57 l-1
-26 -8 25 c-15 46 -10 240 6 240 2 0 17 -26 32 -57z m531 -303 c-9 -5 -65 -23
-125 -39 -60 -16 -118 -33 -129 -37 -19 -6 -19 -6 1 9 41 31 184 74 249 76 17
0 18 -1 4 -9z"/>
<path d="M137 7773 c-12 -11 -8 -6963 3 -6963 6 0 31 28 56 62 106 143 174
344 174 515 0 100 -13 164 -76 373 -69 228 -64 -13 -64 3151 l0 2869 -43 0
c-24 0 -47 -3 -50 -7z"/>
<path d="M1715 7656 c-108 -47 -123 -207 -25 -276 29 -21 35 -22 56 -9 44 27
184 161 184 176 0 32 -44 86 -84 104 -48 22 -89 23 -131 5z"/>
<path d="M1967 7531 c-124 -119 -195 -184 -397 -361 -262 -231 -576 -523 -639
-594 -196 -223 -311 -525 -311 -821 0 -298 100 -552 358 -912 83 -115 188
-280 242 -377 71 -130 152 -363 195 -561 35 -162 33 -157 34 -93 2 85 -28 290
-59 415 -61 243 -141 412 -335 713 -204 314 -280 490 -306 703 -17 136 2 309
47 452 24 73 99 220 155 301 57 82 119 143 439 430 129 116 288 259 352 318
65 58 121 106 126 106 5 0 30 -21 54 -47 24 -27 67 -70 95 -97 l51 -48 84 86
c45 48 84 89 86 90 1 2 -39 45 -90 95 l-93 92 30 16 c79 41 99 100 50 148 -44
45 -76 35 -168 -54z"/>
<path d="M3000 7524 c-117 -89 -251 -150 -352 -161 -35 -3 -64 -13 -73 -23
-14 -15 -3 -29 131 -163 80 -81 151 -147 159 -147 24 0 36 27 40 91 5 85 43
198 115 342 33 64 58 117 57 117 -2 0 -37 -25 -77 -56z"/>
<path d="M2510 7270 c-6 -11 -11 -41 -12 -66 -1 -46 1 -47 105 -152 l105 -105
58 24 c33 13 61 25 64 26 7 6 -284 293 -297 293 -7 0 -17 -9 -23 -20z"/>
<path d="M2281 7219 c-26 -10 -141 -124 -141 -139 0 -6 21 -10 48 -10 26 -1
57 -6 69 -13 13 -7 114 -104 226 -215 215 -213 222 -218 277 -185 47 27 62 81
40 139 -14 36 -374 399 -416 419 -36 17 -68 18 -103 4z"/>
<path d="M451 7128 c6 -13 22 -37 35 -55 13 -17 24 -35 24 -38 0 -4 -15 -28
-34 -54 -134 -184 -192 -471 -166 -821 28 -371 135 -692 318 -955 30 -42 55
-75 58 -73 2 3 -16 39 -39 81 -91 159 -177 419 -223 672 -34 186 -43 471 -20
622 22 147 70 282 131 372 27 41 55 76 61 78 6 2 17 -8 24 -23 17 -30 48 -45
79 -37 48 12 14 110 -64 182 -55 50 -100 71 -155 71 -39 0 -40 -1 -29 -22z"/>
<path d="M2130 7016 c-25 -19 -70 -59 -99 -90 l-55 -56 77 -79 c42 -43 77 -82
77 -86 0 -9 -19 6 -99 77 -35 32 -68 58 -73 58 -11 0 -118 -100 -118 -110 0
-4 14 -10 31 -14 24 -4 88 -62 260 -233 l229 -227 167 167 168 167 -200 201
c-212 213 -265 259 -299 259 -12 0 -41 -16 -66 -34z"/>
<path d="M1787 6679 c-15 -11 -31 -38 -37 -60 -18 -64 0 -98 102 -197 50 -48
123 -120 162 -161 103 -107 139 -131 197 -131 39 0 53 5 78 30 48 48 48 65 4
113 -81 86 -379 383 -407 404 -37 28 -66 29 -99 2z"/>
<path d="M524 6465 c-14 -22 -15 -43 -9 -158 4 -72 10 -150 14 -172 7 -38 7
-37 20 40 7 44 26 119 42 166 16 48 29 95 29 106 0 47 -68 60 -96 18z"/>
<path d="M1530 6465 c-13 -14 -31 -25 -39 -25 -14 0 -38 -20 -83 -68 -7 -8
-32 -34 -55 -58 -24 -24 -43 -48 -43 -55 0 -6 27 -39 60 -72 l59 -62 46 45 45
44 22 -22 23 -22 -105 -105 -105 -105 -52 52 c-43 43 -51 56 -47 78 5 22 -4
37 -46 84 -65 70 -83 81 -104 61 -8 -8 -19 -15 -24 -15 -5 0 -18 -12 -27 -27
-10 -16 -31 -40 -46 -55 -16 -15 -29 -31 -29 -35 0 -5 31 -40 69 -77 68 -68
70 -69 94 -53 23 15 25 14 73 -34 l49 -50 -83 -78 c-45 -44 -82 -83 -82 -88 0
-11 163 -173 174 -173 5 0 6 27 3 61 l-5 61 26 -7 c15 -3 43 -22 62 -41 l35
-34 5 -403 c5 -388 6 -403 27 -442 98 -182 353 -180 430 4 8 19 15 62 15 96 0
53 -7 79 -50 176 -61 141 -78 193 -93 288 -27 182 34 336 153 386 68 28 146
15 201 -33 16 -15 20 -13 53 19 l34 35 -161 162 c-89 89 -159 165 -156 169 10
10 70 -41 210 -178 l132 -128 38 36 c20 21 37 42 37 47 0 6 -70 80 -155 166
-85 86 -155 161 -155 166 0 6 14 21 31 33 l31 23 -58 59 -58 58 -181 -177
c-229 -224 -470 -452 -479 -452 -3 0 -6 6 -6 13 0 11 80 91 493 488 l152 147
-30 31 -29 31 -83 -82 -83 -83 -26 26 c-25 25 -25 27 -10 57 20 39 20 75 1
112 -14 28 -42 50 -63 50 -5 0 -19 -11 -32 -25z m35 -899 c19 -39 48 -124 65
-188 16 -65 41 -147 54 -183 13 -36 22 -65 19 -65 -13 0 -85 182 -112 285 -17
66 -47 151 -66 189 -25 51 -29 64 -15 51 11 -10 36 -50 55 -89z m130 -686 c28
-28 26 -87 -4 -111 -44 -36 -102 -20 -120 31 -28 82 62 140 124 80z"/>
<path d="M2688 6194 c-16 -8 -28 -18 -28 -23 0 -9 -519 -528 -607 -607 -44
-38 -53 -52 -53 -80 0 -35 37 -74 71 -74 11 0 146 126 330 308 242 239 319
310 350 321 56 19 77 62 55 114 -9 23 -25 41 -41 47 -34 13 -44 12 -77 -6z"/>
<path d="M952 5727 c-17 -18 -32 -38 -32 -43 0 -19 236 -243 263 -249 28 -8
72 18 82 47 4 12 -31 53 -125 145 -73 70 -137 129 -144 131 -6 1 -26 -12 -44
-31z"/>
<path d="M2454 5712 c-41 -23 -215 -184 -265 -246 -35 -43 -39 -55 -39 -103 0
-57 23 -114 58 -146 19 -17 24 -13 240 210 l221 228 -22 23 c-49 53 -132 68
-193 34z"/>
<path d="M2630 5564 c-30 -32 -126 -122 -212 -201 -86 -79 -160 -153 -163
-164 -5 -15 1 -29 21 -50 l28 -29 20 23 c12 12 110 116 220 230 193 202 198
208 181 227 -10 11 -23 20 -29 20 -7 0 -36 -25 -66 -56z"/>
<path d="M2541 5332 l-225 -218 21 -30 c37 -52 61 -68 78 -54 9 8 15 8 15 2 0
-6 -5 -14 -10 -17 -12 -7 56 -95 74 -95 12 0 423 407 439 435 7 13 2 24 -19
46 -15 16 -30 29 -33 29 -3 0 -30 -23 -59 -50 -72 -68 -85 -63 -23 8 28 32 51
62 51 67 0 8 -69 88 -79 92 -3 1 -107 -96 -230 -215z"/>
<path d="M2920 5288 c-24 -28 -121 -120 -215 -203 -93 -83 -176 -159 -184
-169 -13 -15 -11 -21 16 -47 l30 -31 84 80 c47 44 147 146 224 227 l138 146
-24 24 -24 23 -45 -50z"/>
<path d="M2980 5197 c-30 -33 -130 -127 -222 -210 -93 -82 -168 -155 -168
-162 0 -13 42 -55 56 -55 8 0 142 133 359 358 l80 82 -25 23 -25 23 -55 -59z"/>
<path d="M371 5163 c-80 -301 -60 -648 53 -911 63 -147 140 -254 311 -432 212
-221 292 -331 355 -485 53 -129 78 -222 96 -360 9 -66 17 -121 19 -123 12 -12
20 208 20 543 0 441 -5 493 -76 710 -84 262 -177 409 -429 680 -167 180 -310
384 -310 443 0 6 -4 12 -9 12 -5 0 -18 -35 -30 -77z"/>
<path d="M2978 5053 c-68 -65 -165 -159 -218 -210 -52 -50 -91 -95 -87 -99 14
-15 116 -24 200 -18 81 6 87 5 87 -12 0 -13 21 3 74 55 92 91 107 116 81 135
-17 12 -17 22 -9 135 5 68 6 125 2 128 -5 2 -63 -49 -130 -114z"/>
<path d="M3052 4747 c-58 -58 -81 -88 -77 -99 4 -9 37 -43 73 -75 l67 -59 87
91 87 92 -62 54 c-34 30 -69 60 -78 66 -13 10 -28 -1 -97 -70z"/>
<path d="M2067 4705 c-37 -41 -76 -93 -87 -117 -24 -52 -27 -163 -6 -212 l14
-34 -33 14 c-59 24 -137 28 -194 9 -49 -16 -256 -145 -233 -145 6 0 48 -34 92
-76 123 -114 217 -149 328 -120 33 8 34 7 25 -15 -4 -13 -8 -58 -8 -99 1 -96
18 -132 110 -228 l70 -74 68 73 c94 103 112 138 111 224 0 46 -6 81 -17 102
l-17 32 46 -16 c103 -35 205 4 330 126 l81 78 -76 51 c-163 107 -239 124 -353
77 -15 -6 -15 -3 -2 42 30 96 -7 199 -112 318 -32 36 -60 65 -63 65 -3 0 -36
-34 -74 -75z m139 -449 c27 -27 34 -42 34 -72 -1 -59 -46 -104 -105 -104 -36
0 -95 59 -95 95 0 102 98 149 166 81z"/>
<path d="M3196 4558 c-43 -50 -45 -53 -28 -69 268 -254 688 -642 761 -704 51
-43 -22 50 -259 329 -74 87 -157 186 -184 220 -135 166 -229 276 -236 276 -5
0 -29 -24 -54 -52z"/>
<path d="M2944 4340 c4 -19 9 -96 12 -171 10 -214 -24 -379 -121 -586 -79
-168 -171 -295 -414 -572 -301 -343 -381 -462 -609 -897 -182 -349 -220 -411
-401 -639 -160 -203 -395 -428 -734 -703 l-77 -63 -28 19 c-107 77 -298 65
-417 -26 -36 -27 -60 -57 -85 -106 -33 -65 -35 -75 -35 -165 0 -85 3 -103 28
-152 60 -124 186 -202 324 -202 61 0 82 5 136 31 131 65 197 161 205 297 4 71
1 89 -23 150 l-28 69 29 25 c379 333 577 486 867 668 463 291 606 390 772 532
283 243 477 488 621 786 85 177 124 291 164 487 66 320 62 584 -15 879 -34
131 -103 287 -155 349 l-21 25 5 -35z m-604 -1921 c-31 -78 -115 -235 -165
-305 -56 -78 -216 -256 -257 -285 -18 -13 15 32 80 110 131 156 232 304 304
447 56 109 74 124 38 33z"/>
<path d="M3280 3989 c0 -4 11 -36 25 -72 28 -76 67 -229 86 -337 8 -44 13
-151 13 -260 -1 -160 -4 -202 -27 -311 -36 -171 -76 -287 -156 -454 -96 -200
-219 -371 -422 -590 -85 -91 -63 -79 106 59 210 172 486 427 802 743 l121 121
-41 33 -41 33 -135 -144 c-75 -80 -189 -199 -254 -265 l-118 -120 39 80 c124
252 196 529 209 800 12 276 -47 493 -179 656 -15 19 -28 31 -28 28z"/>
<path d="M1841 3933 c-83 -49 -154 -119 -218 -213 -166 -247 -248 -528 -273
-940 -33 -551 -42 -632 -90 -826 -86 -353 -260 -688 -502 -969 -53 -60 -113
-130 -134 -155 -34 -39 -35 -42 -9 -22 17 13 90 78 163 144 335 302 493 554
591 944 55 218 74 363 91 710 6 115 15 254 21 309 38 369 151 646 346 855 62
66 71 81 75 120 3 25 8 53 12 63 12 25 -2 21 -73 -20z"/>
<path d="M356 3868 c-8 -87 7 -251 29 -328 49 -168 99 -258 239 -430 167 -205
205 -261 255 -378 69 -164 101 -398 82 -617 -21 -238 -79 -445 -191 -670 -90
-183 -163 -292 -357 -535 -21 -27 -12 -22 38 22 79 69 213 221 291 329 157
220 298 600 355 963 14 87 18 171 18 391 0 252 -3 290 -23 381 -73 336 -215
572 -454 753 -95 73 -263 191 -271 191 -2 0 -8 -33 -11 -72z"/>
<path d="M2430 3498 c-92 -13 -232 -62 -319 -111 -136 -77 -358 -310 -436
-459 -33 -62 -79 -178 -70 -178 2 0 16 24 33 53 43 76 104 140 180 190 74 49
128 69 247 91 145 27 243 70 337 148 42 35 152 171 201 251 l17 27 -62 -1
c-35 -1 -92 -6 -128 -11z"/>
<path d="M3890 3269 c-85 -25 -141 -102 -142 -194 -1 -61 24 -111 75 -149 136
-103 334 11 314 180 -12 111 -139 194 -247 163z"/>
<path d="M435 2975 c-34 -33 -34 -93 -2 -123 36 -34 89 -30 121 9 34 40 33 74
-3 110 -38 37 -82 39 -116 4z"/>
<path d="M1825 2851 c-80 -36 -144 -140 -184 -297 -11 -43 -33 -164 -50 -269
-17 -104 -39 -225 -50 -268 -10 -43 -15 -75 -10 -70 17 17 99 263 138 416 75
290 115 353 233 372 38 6 68 35 68 65 0 24 -41 59 -75 65 -18 2 -47 -3 -70
-14z"/>
<path d="M4269 2729 c-33 -33 -4 -89 47 -89 28 0 47 23 47 57 0 49 -57 69 -94
32z"/>
<path d="M465 2564 c-83 -194 -112 -404 -81 -584 9 -52 30 -142 45 -200 47
-172 55 -219 54 -350 -1 -151 -22 -243 -87 -375 -41 -83 -42 -87 -15 -55 57
67 167 235 212 325 62 124 85 183 112 300 57 244 41 375 -76 624 -69 147 -109
268 -112 340 -1 34 -5 61 -8 61 -4 0 -23 -39 -44 -86z"/>
<path d="M3968 2516 c-89 -16 -152 -36 -263 -83 -104 -45 -167 -85 -415 -266
-113 -83 -252 -185 -310 -227 -111 -81 -322 -223 -452 -304 -43 -26 -78 -50
-78 -52 0 -2 30 8 68 22 37 14 110 41 162 60 209 75 408 191 670 389 236 179
411 278 557 316 99 25 260 28 356 5 234 -55 412 -239 463 -477 21 -98 14 -275
-16 -379 -62 -217 -210 -415 -445 -595 -198 -152 -494 -267 -880 -341 -126
-24 -164 -27 -372 -28 -127 -1 -224 -4 -214 -8 33 -12 216 -37 352 -49 224
-18 483 14 711 87 274 88 470 205 654 388 161 160 242 289 303 479 132 412
-13 809 -361 992 -132 70 -333 99 -490 71z"/>
<path d="M4027 2046 c-161 -60 -244 -251 -173 -401 109 -234 434 -231 544 5
64 136 3 313 -132 382 -52 27 -183 35 -239 14z"/>
<path d="M5043 1973 c-21 -8 -16 -61 7 -73 27 -15 60 4 60 33 0 38 -29 56 -67
40z"/>
<path d="M3525 1881 c-92 -33 -325 -164 -313 -176 2 -2 32 7 67 21 83 34 243
74 293 74 55 0 78 15 78 50 0 51 -40 61 -125 31z"/>
<path d="M5211 1750 c-47 -35 -135 -150 -212 -277 -29 -49 -59 -99 -68 -113
-8 -14 35 25 95 86 129 131 179 169 251 190 79 23 102 67 62 118 -28 36 -74
35 -128 -4z"/>
<path d="M2625 1525 c-291 -47 -652 -168 -915 -307 -243 -129 -396 -226 -695
-440 -277 -198 -277 -198 -105 -129 320 129 597 189 970 211 396 23 581 56
785 141 84 34 236 131 320 202 33 28 71 60 84 71 54 46 -38 -60 -125 -144
-246 -237 -464 -339 -779 -366 -106 -8 -93 -13 105 -38 434 -54 733 -40 1055
50 296 83 580 242 783 438 46 45 69 78 42 61 -5 -3 -54 -1 -107 5 -79 8 -147
27 -348 95 -390 132 -557 165 -825 164 -91 -1 -201 -7 -245 -14z"/>
<path d="M5855 1433 c-160 -12 -374 -53 -496 -93 -313 -104 -556 -273 -949
-658 -117 -116 -120 -129 -8 -44 134 101 472 329 585 394 134 77 293 147 415
182 268 77 569 57 804 -53 281 -132 487 -408 472 -634 -6 -86 -25 -127 -87
-186 -38 -36 -42 -42 -21 -36 41 12 119 66 145 99 44 58 60 114 59 206 -1 51
-8 103 -18 129 l-16 43 87 -82 c164 -155 315 -243 518 -300 155 -43 415 -64
415 -34 0 11 -191 287 -255 370 -84 107 -223 246 -315 315 -352 263 -891 418
-1335 382z"/>
<path d="M5561 1003 c-172 -43 -263 -98 -440 -268 -135 -128 -221 -193 -315
-235 -163 -74 -427 -113 -623 -92 -59 6 -119 15 -133 18 -18 5 -22 4 -15 -4 6
-6 51 -25 101 -41 124 -42 304 -59 441 -43 303 35 600 124 749 224 95 64 156
137 224 269 29 57 66 123 82 147 17 24 28 45 26 46 -1 2 -45 -7 -97 -21z"/>
<path d="M5900 854 c-77 -33 -120 -101 -120 -189 0 -137 117 -233 250 -204 60
13 112 54 142 112 30 60 22 152 -17 209 -56 79 -167 110 -255 72z"/>
<path d="M1745 643 c-190 -9 -380 -42 -542 -94 -89 -29 -204 -77 -153 -64 269
66 394 80 654 72 392 -11 656 -79 1201 -310 187 -79 275 -111 420 -154 57 -17
184 -18 2218 -20 l2158 -3 -3 47 -3 48 -1745 2 c-1202 1 -1793 5 -1900 13
-356 26 -566 76 -1130 269 -291 100 -613 170 -874 191 -123 10 -165 10 -301 3z"/>
<path d="M1215 421 c-49 -11 -115 -28 -146 -39 -57 -20 -209 -88 -209 -94 0
-2 48 -4 108 -5 142 -3 235 -28 400 -108 227 -111 170 -105 961 -105 377 0
681 4 675 8 -11 11 -103 46 -159 62 -22 7 -161 16 -310 20 -320 11 -377 22
-524 102 -270 147 -336 168 -556 174 -120 3 -168 0 -240 -15z"/>
<path d="M7864 220 c-39 -16 -66 -61 -60 -100 6 -40 55 -90 87 -90 51 0 98 47
99 98 0 44 -14 68 -50 87 -32 17 -45 18 -76 5z"/>
<path d="M860 173 c-38 -8 -142 -58 -170 -81 l-25 -21 325 0 c322 0 325 0 290
18 -91 49 -214 83 -305 86 -49 2 -101 1 -115 -2z"/>
</g>
</svg>
