<?xml version="1.0" standalone="no"?>
<!DOCTYPE svg PUBLIC "-//W3C//DTD SVG 20010904//EN"
 "http://www.w3.org/TR/2001/REC-SVG-20010904/DTD/svg10.dtd">
<svg version="1.0" xmlns="http://www.w3.org/2000/svg"
 width="3584.000000pt" height="182.000000pt" viewBox="0 0 3584.000000 182.000000"
 preserveAspectRatio="xMidYMid meet">

<g transform="translate(0.000000,182.000000) scale(0.100000,-0.100000)"
fill="#000000" stroke="none">
<path d="M14506 1768 c67 -133 198 -284 334 -387 127 -96 328 -188 500 -229
132 -32 174 -37 360 -35 204 1 233 5 510 72 199 49 350 83 495 111 117 23 136
28 143 35 8 9 -289 -2 -433 -15 -287 -28 -657 -23 -860 11 -365 62 -735 227
-967 430 -36 33 -76 59 -87 59 -21 0 -21 -1 5 -52z"/>
<path d="M15130 1811 c0 -4 10 -21 22 -37 111 -149 292 -248 543 -298 148 -29
307 -36 805 -36 488 0 620 -7 803 -40 31 -5 81 -14 111 -19 95 -17 140 -31
128 -43 -6 -6 -59 -19 -119 -28 -59 -10 -151 -28 -203 -40 -52 -13 -106 -25
-120 -27 -85 -17 -233 -63 -845 -261 -203 -67 -444 -144 -535 -172 -91 -28
-176 -55 -190 -60 -14 -5 -72 -23 -130 -40 -58 -18 -159 -49 -225 -70 -66 -22
-169 -53 -230 -69 -60 -17 -123 -35 -140 -40 -27 -8 -145 -37 -250 -61 -22 -5
-67 -14 -100 -19 -33 -6 -91 -16 -130 -23 -98 -18 -562 -17 -675 1 -47 7 -103
18 -125 24 -63 15 -19 25 117 26 109 1 319 20 453 41 197 31 431 91 835 214
581 176 563 164 250 164 -272 -1 -355 10 -622 77 -159 40 -276 82 -478 172
-371 167 -450 197 -691 267 -261 75 -667 88 -1009 30 -111 -18 -137 -24 -400
-89 -215 -52 -548 -165 -727 -246 -24 -10 -64 -28 -90 -40 -86 -38 -387 -191
-415 -210 -14 -11 -28 -19 -31 -19 -3 0 -95 -52 -206 -115 -222 -127 -327
-179 -506 -250 -190 -75 -380 -130 -550 -161 -79 -14 -173 -19 -163 -9 3 3 54
23 114 44 333 120 441 165 689 291 202 103 345 185 484 280 199 136 188 147
-35 36 -93 -46 -191 -94 -219 -106 -27 -13 -97 -45 -155 -72 -58 -27 -126 -58
-151 -68 -25 -10 -128 -54 -230 -97 -211 -91 -479 -183 -649 -221 -120 -27
-158 -34 -176 -30 -21 4 34 27 199 84 54 19 105 40 112 48 8 7 36 16 64 20 28
4 53 11 56 16 3 6 13 10 21 10 8 0 45 14 82 31 37 17 76 34 87 39 42 16 116
54 121 62 9 14 -14 9 -68 -16 -71 -32 -230 -96 -240 -96 -4 0 -31 -11 -60 -24
-29 -13 -69 -27 -88 -31 -19 -3 -76 -19 -125 -35 -196 -63 -470 -113 -452 -83
4 6 17 13 29 16 13 2 64 16 113 31 50 14 108 31 130 37 71 19 350 120 387 140
10 5 22 9 28 9 15 0 122 51 117 56 -2 2 -51 -12 -108 -32 -57 -20 -120 -39
-139 -43 -19 -5 -53 -16 -75 -25 -138 -59 -492 -149 -635 -160 -85 -8 -68 -1
150 58 166 45 559 195 785 301 44 20 102 46 129 56 84 34 258 129 235 129 -2
0 -45 -14 -94 -31 -50 -16 -124 -39 -165 -50 -85 -22 -218 -63 -395 -119 -117
-38 -194 -60 -460 -133 -351 -97 -722 -156 -892 -143 -94 7 -122 14 -101 27 7
5 27 9 45 9 43 0 312 54 448 90 231 60 274 73 415 117 329 103 645 190 844
233 286 61 718 187 926 270 208 83 788 266 970 306 217 48 429 85 595 104 219
26 232 29 190 42 -73 24 -1139 28 -6070 25 -4725 -3 -5197 -5 -5265 -20 -161
-34 -294 -92 -410 -177 -70 -52 -77 -59 -158 -162 -72 -93 -70 -99 26 -92 42
2 176 9 297 14 202 9 250 16 370 50 315 89 471 113 843 132 533 26 1177 -39
1513 -152 115 -40 309 -130 291 -137 -7 -3 -25 0 -40 5 -59 23 -293 73 -447
96 -260 38 -297 41 -550 40 -191 0 -293 -5 -385 -18 -231 -32 -409 -73 -625
-145 -95 -31 -306 -111 -365 -138 -404 -185 -639 -369 -783 -612 l-48 -81 -54
0 c-66 0 -70 9 -56 114 19 133 73 263 155 373 62 82 127 135 220 179 42 20 76
40 76 45 0 13 -85 0 -160 -23 -198 -63 -388 -204 -492 -367 l-28 -45 0 -233 0
-234 17915 3 17914 3 4 -65 c2 -36 3 347 3 850 -1 503 -2 655 -3 336 l-3 -578
-70 65 c-128 122 -290 219 -440 265 -76 24 -165 38 -157 25 3 -5 41 -27 84
-48 109 -53 242 -186 300 -300 54 -104 85 -219 81 -299 l-3 -61 -50 0 -50 0
-60 90 c-136 204 -348 379 -640 527 -107 55 -256 120 -345 153 -291 106 -408
138 -680 185 -407 71 -932 41 -1375 -80 -60 -16 -116 -30 -122 -30 -61 0 107
81 300 145 224 75 442 113 807 140 340 26 796 15 1045 -24 33 -5 92 -14 130
-20 70 -10 224 -48 388 -95 109 -31 263 -46 470 -46 95 0 166 -4 179 -11 15
-8 23 -8 31 0 15 15 -7 56 -76 141 -119 147 -318 254 -557 297 -76 14 -1083
16 -9755 19 -6615 2 -9703 6 -9775 13 -130 13 -210 33 -277 71 -53 30 -83 38
-83 21z m11834 -202 c143 -13 337 -49 338 -64 1 -5 -36 -18 -83 -27 -238 -48
-398 -95 -669 -198 -47 -17 -110 -41 -140 -52 -30 -11 -79 -31 -108 -44 -29
-13 -55 -24 -58 -24 -9 0 -374 -185 -474 -240 -52 -29 -115 -64 -140 -77 -25
-14 -104 -58 -177 -99 -169 -94 -424 -222 -534 -267 -262 -108 -578 -185 -907
-222 -219 -25 -642 -17 -849 15 -391 61 -459 80 -790 211 -268 107 -376 140
-565 173 -300 52 -378 56 -583 31 -241 -29 -436 -82 -838 -229 -171 -63 -167
-49 21 62 101 60 128 82 104 82 -17 0 -316 -101 -418 -141 -57 -22 -110 -39
-116 -37 -19 7 187 137 297 189 352 165 685 264 1055 316 149 20 642 24 780 5
248 -34 358 -51 445 -71 22 -5 65 -14 95 -21 30 -7 73 -16 95 -21 179 -40 351
-60 580 -66 247 -7 408 4 627 43 143 24 490 107 603 142 33 11 107 34 165 52
178 55 390 128 555 193 50 19 131 49 180 67 50 18 162 59 250 92 210 78 194
73 315 106 102 29 153 41 245 62 25 6 64 14 88 20 197 44 403 57 611 39z
m3787 -144 c171 -19 320 -47 320 -60 0 -6 -19 -14 -43 -18 -186 -37 -329 -73
-473 -122 -310 -104 -437 -169 -830 -426 -203 -134 -401 -259 -408 -259 -3 0
-60 -26 -128 -58 -153 -72 -185 -85 -199 -80 -10 3 98 84 240 178 36 24 117
83 180 130 63 48 196 147 295 220 100 74 174 135 166 138 -28 9 -326 -157
-551 -308 -68 -46 -330 -195 -466 -266 -93 -48 -247 -106 -399 -149 -76 -22
-208 -46 -215 -39 -7 8 9 16 230 121 381 181 547 276 770 436 114 82 128 97
95 97 -9 0 -156 -71 -328 -158 -171 -86 -341 -170 -377 -186 -36 -16 -83 -37
-105 -46 -50 -23 -263 -106 -330 -129 -27 -10 -72 -26 -100 -36 -27 -10 -90
-26 -140 -35 -49 -10 -97 -21 -106 -25 -26 -10 -31 11 -6 23 35 17 157 63 219
83 63 20 161 61 283 119 44 21 110 52 148 69 37 17 67 33 67 35 0 6 -20 -1
-76 -25 -66 -29 -144 -59 -223 -86 -71 -24 -248 -95 -283 -114 -10 -5 -29 -9
-43 -9 -13 0 -58 -11 -99 -25 -92 -31 -206 -55 -254 -54 l-37 0 40 18 c22 11
65 27 95 36 81 26 239 84 285 105 22 9 62 25 89 34 27 9 73 28 103 41 29 14
56 25 58 25 12 0 116 52 112 56 -6 6 -122 -32 -262 -86 -11 -4 -56 -19 -100
-34 -44 -15 -132 -46 -195 -68 -163 -57 -386 -114 -399 -102 -8 7 -18 3 379
157 343 133 929 412 908 432 -2 2 -37 -7 -78 -21 -75 -25 -377 -103 -625 -162
-592 -141 -1026 -253 -1245 -322 -230 -72 -468 -135 -476 -127 -7 7 119 80
203 118 515 232 805 331 1223 419 25 5 88 18 142 30 53 11 230 43 395 71 561
95 576 98 1178 271 203 58 476 122 650 154 68 12 344 31 466 33 64 0 181 -6
260 -14z m-22353 -37 c56 -6 102 -14 102 -17 0 -4 -39 -17 -87 -30 -121 -33
-398 -124 -453 -149 -25 -11 -79 -34 -120 -50 -144 -58 -534 -247 -735 -358
-195 -107 -475 -246 -570 -284 -218 -87 -493 -163 -750 -209 -248 -44 -605
-41 -885 8 -168 30 -266 51 -355 79 -16 5 -109 41 -205 80 -395 158 -623 208
-915 200 -244 -7 -380 -38 -685 -160 -152 -61 -341 -124 -395 -131 -38 -6 -39
-5 -20 9 11 9 116 63 233 120 116 57 212 108 212 114 0 13 1 13 -62 -4 -169
-44 -434 -136 -617 -215 -52 -23 -96 -39 -99 -37 -23 23 233 176 468 279 19 8
60 26 90 40 79 35 237 93 332 122 46 14 97 29 113 34 68 21 265 60 405 80 202
30 748 31 1015 2 90 -10 224 -23 429 -41 166 -15 610 -12 751 5 295 36 403 58
955 201 427 111 516 132 700 169 145 29 185 37 207 44 13 3 -389 7 -893 9
-504 1 -925 0 -935 -3 -15 -5 -19 -16 -19 -55 0 -115 -132 -168 -210 -85 -14
15 -28 49 -35 83 l-12 57 -379 5 c-235 4 -391 10 -410 17 -47 17 -94 43 -94
52 0 5 561 12 1248 15 686 4 1488 11 1782 15 568 9 733 7 898 -11z m13207 -11
c55 -10 136 -27 180 -38 93 -24 303 -104 325 -125 19 -19 9 -18 -92 5 -220 49
-374 64 -648 65 -395 0 -623 -44 -999 -193 -268 -107 -633 -325 -856 -512 -95
-80 -248 -199 -373 -291 -73 -54 -151 -60 -206 -17 -33 26 -27 35 27 44 98 17
176 118 162 208 -16 96 -77 184 -164 235 -42 24 -54 27 -136 25 -49 -1 -101
-3 -115 -5 -20 -2 -26 2 -28 22 -6 36 15 93 42 119 78 74 218 28 365 -120 72
-73 129 -179 135 -253 3 -26 7 -50 10 -53 3 -3 49 32 102 78 122 105 322 258
352 270 27 11 29 40 2 64 -28 25 -27 73 3 84 39 15 76 -13 77 -56 0 -13 3 -23
6 -23 4 0 36 20 73 44 36 24 87 56 114 70 26 14 68 38 95 53 26 14 69 37 95
51 26 13 46 27 43 30 -3 3 -31 -1 -61 -8 -62 -15 -99 -4 -108 32 -8 28 0 42
34 62 34 20 67 17 124 -10 38 -18 51 -40 34 -60 -18 -22 0 -18 128 30 65 24
146 52 181 62 34 10 62 23 62 28 0 5 -33 6 -77 2 -43 -3 -213 -8 -378 -11
-434 -7 -636 -14 -753 -26 -95 -9 -287 -52 -442 -99 -36 -11 -130 -38 -210
-60 -80 -23 -166 -48 -192 -56 l-48 -15 22 -29 c23 -32 21 -57 -14 -127 -27
-53 -19 -73 27 -73 39 0 75 -28 74 -58 -1 -27 -67 -76 -102 -77 -25 0 -32 -5
-37 -25 -9 -36 -50 -34 -68 3 -11 23 -19 27 -49 25 -27 -2 -40 3 -54 21 -32
39 -25 55 20 47 30 -4 44 -2 56 11 16 16 16 18 -5 35 -12 10 -30 18 -39 18
-41 0 -53 43 -23 80 17 21 22 22 52 11 44 -15 56 -3 64 67 8 62 14 60 -114 28
-52 -13 -171 -38 -265 -56 -193 -37 -246 -52 -435 -120 -74 -26 -169 -58 -210
-70 -90 -27 -294 -90 -405 -125 -307 -97 -539 -155 -617 -155 -16 0 -28 -5
-28 -10 0 -13 34 -26 130 -51 113 -28 125 -27 138 20 7 21 19 45 28 52 14 11
19 9 35 -11 23 -30 24 -44 4 -60 -29 -24 -14 -30 78 -30 107 0 125 -7 107 -40
-18 -33 -70 -50 -157 -50 -94 0 -187 17 -393 72 -177 46 -152 41 -335 68 -150
22 -200 36 -175 49 19 9 97 23 315 56 255 39 476 90 750 173 55 17 129 39 165
50 36 11 153 48 260 82 359 114 484 150 730 211 135 33 374 92 533 131 158 39
294 76 303 83 13 9 -23 13 -177 18 -218 7 -347 27 -466 70 -117 43 -155 42
1087 47 1894 9 2187 7 2305 -13z m3164 -3 c5 -4 -36 -20 -119 -47 -60 -19 -94
-21 -422 -25 l-358 -3 0 -41 c0 -48 -33 -112 -67 -127 -44 -20 -98 -14 -127
15 -27 28 -45 81 -43 124 l2 25 -275 0 -275 0 -6 -52 c-12 -99 -79 -162 -172
-163 -89 0 -177 88 -177 179 0 31 -15 41 -56 41 -42 0 -64 18 -64 50 l0 30
213 2 c260 4 1940 -3 1946 -8z m3174 -8 c9 -5 17 -11 17 -15 0 -3 -38 -21 -83
-40 -45 -19 -103 -47 -128 -62 -88 -51 -118 -45 -62 13 30 31 28 48 -3 20
-110 -99 -164 -142 -178 -142 -26 0 -19 21 33 90 27 36 48 67 45 69 -8 8 -57
-33 -121 -101 -38 -40 -79 -82 -92 -95 -24 -23 -61 -31 -61 -13 0 12 76 138
98 163 8 9 12 20 8 24 -16 17 -103 -75 -171 -183 -30 -48 -55 -67 -55 -42 0
22 78 168 117 219 66 86 158 109 433 105 102 -1 193 -6 203 -10z m-18540 -15
c7 -7 1 -14 -19 -22 -99 -39 -182 -82 -272 -142 -57 -38 -106 -66 -110 -63 -8
9 15 47 53 88 19 20 35 39 35 42 0 18 -29 -4 -124 -94 -103 -97 -143 -127
-153 -117 -7 8 20 55 69 122 93 127 72 116 -79 -42 -155 -161 -175 -157 -63
14 28 42 48 78 45 81 -3 3 -7 3 -8 1 -100 -124 -227 -263 -234 -255 -9 9 88
182 139 250 28 37 65 77 82 87 38 23 142 47 256 59 105 11 369 5 383 -9z
m17817 -52 c0 -6 -11 -25 -24 -42 -13 -18 -38 -57 -56 -87 -36 -62 -130 -189
-154 -209 -29 -24 -27 -6 9 88 20 51 35 97 33 102 -3 9 -60 -64 -125 -162 -35
-50 -63 -78 -63 -61 0 19 30 105 57 160 14 29 23 55 20 58 -5 5 -47 -49 -47
-61 0 -13 -104 -165 -112 -165 -38 0 79 249 143 304 37 31 75 44 244 79 39 9
75 7 75 -4z m-18640 -63 c0 -15 -199 -306 -238 -348 -22 -24 -52 -38 -52 -24
0 2 14 36 30 76 17 40 29 75 27 77 -2 2 -32 -31 -67 -74 -35 -42 -65 -73 -67
-67 -2 5 15 45 36 89 22 44 38 82 35 84 -2 2 -5 2 -7 0 -2 -2 -30 -42 -62 -89
-131 -192 -167 -186 -71 12 84 174 89 177 296 239 146 44 140 43 140 25z
m10859 -32 c116 -34 166 -122 138 -242 -25 -107 -91 -180 -203 -222 -126 -47
-205 -14 -260 108 -65 143 0 292 153 352 59 23 104 25 172 4z m7321 -31 c-1
-8 -16 -33 -139 -228 -30 -47 -73 -102 -95 -123 -38 -34 -41 -35 -44 -16 -2
12 7 48 18 80 12 33 26 74 30 93 7 28 6 32 -5 20 -7 -8 -28 -41 -46 -74 -50
-92 -98 -165 -109 -165 -13 0 -14 -2 16 82 31 87 102 234 119 248 7 6 55 28
106 49 88 37 150 51 149 34z m-6849 -40 c14 -37 1 -73 -33 -92 -25 -14 -29
-14 -55 5 -36 27 -39 53 -13 87 31 39 86 38 101 0z m-17601 -3 c0 -5 -7 -10
-16 -10 -44 0 -411 -101 -524 -145 -167 -64 -342 -146 -450 -210 -148 -88
-211 -125 -275 -165 -68 -43 -294 -171 -387 -220 -26 -13 -50 -21 -54 -17 -25
24 214 271 354 366 161 109 405 210 722 299 273 77 630 135 630 102z m10259
-30 c70 -33 70 -40 4 -64 -24 -9 -62 -23 -85 -32 -45 -16 -99 -14 -124 7 -25
20 -17 65 17 93 43 37 104 35 188 -4z m21276 4 c247 -48 626 -156 680 -194 6
-4 37 -17 70 -30 189 -74 342 -176 501 -335 118 -118 162 -170 151 -181 -10
-11 -322 149 -482 246 -88 53 -205 123 -260 155 -100 57 -378 195 -394 195 -5
0 -33 11 -62 24 -84 36 -229 84 -326 106 -48 11 -101 24 -118 30 -46 15 142 3
240 -16z m-25755 -19 c0 -8 -58 -102 -135 -219 -52 -78 -86 -121 -104 -127
-14 -6 -34 -18 -43 -26 -17 -15 -18 -14 -18 23 0 22 13 65 29 101 17 34 26 65
21 68 -5 3 -32 -29 -59 -72 -96 -150 -131 -190 -131 -147 0 23 76 182 106 221
34 45 100 88 213 139 89 40 121 51 121 39z m3810 -9 c0 -2 -28 -17 -62 -34
-84 -39 -172 -107 -294 -224 -55 -54 -104 -98 -107 -98 -17 0 -3 32 45 101 29
41 58 80 65 87 19 20 16 24 -8 12 -22 -12 -164 -151 -217 -212 -34 -40 -52
-48 -52 -23 0 16 72 159 92 183 7 8 7 12 0 12 -12 0 -79 -75 -151 -168 -30
-39 -58 -69 -62 -66 -10 6 0 43 20 74 9 14 27 46 40 72 53 101 88 138 165 174
107 49 213 82 313 98 85 13 213 20 213 12z m14490 -36 c0 -11 -36 -78 -54
-100 -7 -8 -28 -42 -46 -75 -60 -109 -141 -208 -157 -192 -2 2 10 37 27 77 17
41 29 78 27 83 -3 10 -117 -157 -117 -172 0 -5 -7 -14 -15 -21 -20 -16 -19
-13 11 76 14 42 23 79 20 82 -8 7 -6 9 -54 -73 -47 -78 -88 -133 -95 -125 -8
8 63 161 111 239 36 57 54 77 86 92 23 10 68 33 101 52 58 32 132 65 148 66 4
1 7 -3 7 -9z m5840 -95 c147 -6 209 -12 360 -36 315 -50 592 -140 897 -292
160 -80 209 -108 321 -182 120 -80 93 -82 -92 -7 -228 92 -415 153 -615 202
-38 9 -64 7 -50 -3 7 -6 132 -64 225 -105 97 -43 259 -124 284 -142 40 -30
-157 18 -370 90 -138 46 -303 95 -400 118 -131 32 -314 71 -380 81 -41 7 -94
17 -117 22 -55 12 -260 24 -252 15 4 -4 65 -23 137 -42 71 -18 183 -54 248
-80 66 -25 160 -60 209 -78 101 -37 210 -83 239 -103 17 -11 14 -12 -20 -6
-21 3 -68 16 -104 29 -187 65 -269 92 -310 103 -25 7 -60 17 -78 23 -19 5 -36
7 -39 5 -6 -6 72 -43 207 -99 136 -56 150 -62 150 -70 0 -11 -4 -10 -85 7 -70
14 -106 26 -265 85 -141 52 -283 98 -325 105 -38 7 -39 6 -20 -9 11 -8 25 -15
30 -16 15 0 418 -162 430 -171 12 -12 -54 -12 -91 0 -16 5 -49 14 -74 21 -52
14 -42 11 -267 84 -285 93 -484 126 -766 126 -172 0 -232 -6 -417 -41 -192
-36 -283 -62 -530 -146 -305 -105 -293 -102 -250 -63 153 140 634 362 988 456
28 8 78 21 110 29 225 60 673 111 872 99 30 -2 125 -6 210 -9z m-18580 -39
c159 -22 348 -62 478 -102 51 -15 -8 -24 -167 -24 -394 0 -989 -56 -1351 -127
-265 -51 -411 -86 -747 -179 -241 -66 -670 -161 -680 -150 -10 10 200 119 432
224 224 101 428 173 670 237 194 51 241 61 470 104 60 12 227 30 310 35 122 7
483 -4 585 -18z m-6030 -13 c0 -3 -13 -27 -28 -52 -16 -25 -50 -83 -76 -128
-58 -100 -146 -186 -146 -141 0 6 9 38 21 71 11 32 19 61 16 63 -2 2 -30 -27
-63 -66 -76 -92 -99 -96 -49 -9 43 75 28 75 -50 -1 -79 -76 -102 -85 -65 -26
18 31 19 36 5 36 -18 0 -87 -33 -127 -62 -16 -11 -28 -16 -28 -12 0 11 42 54
52 54 5 0 29 13 53 30 24 16 56 35 71 40 14 6 40 20 55 31 39 28 331 178 347
179 6 0 12 -3 12 -7z m26090 -8 c258 -30 513 -127 720 -273 106 -75 274 -251
257 -268 -8 -8 -103 45 -279 154 -276 173 -450 262 -670 343 -65 24 -118 48
-118 52 0 5 8 6 18 3 9 -2 42 -7 72 -11z m-31499 -8 c-6 -8 -30 -20 -53 -27
-67 -21 -211 -85 -353 -157 -143 -72 -190 -98 -436 -244 -153 -91 -189 -109
-189 -93 0 16 163 182 226 230 93 71 246 156 354 195 100 37 285 85 373 98 92
13 91 13 78 -2z m8969 -3 c0 -3 -15 -24 -34 -47 -18 -23 -59 -81 -90 -129 -58
-89 -137 -171 -144 -150 -2 7 10 37 27 69 17 31 28 59 25 62 -3 3 -28 -18 -55
-48 -54 -57 -71 -60 -50 -8 7 18 15 41 18 52 6 20 6 20 -16 0 -13 -11 -39 -45
-58 -77 -20 -32 -40 -58 -44 -58 -13 0 -11 5 11 45 24 42 25 59 5 51 -8 -3
-22 -9 -30 -12 -9 -4 -15 -1 -15 9 0 18 173 134 255 171 33 15 83 38 110 51
48 23 85 31 85 19z m6798 -13 c53 -27 119 -102 149 -169 37 -85 37 -197 -1
-272 -37 -75 -106 -143 -180 -177 -52 -24 -74 -28 -151 -28 -81 0 -97 4 -156
32 -63 31 -92 57 -205 182 -112 124 -209 145 -281 62 -51 -59 -24 -161 45
-174 37 -7 53 4 87 57 35 56 58 65 94 38 22 -16 26 -27 25 -66 -1 -79 -62
-126 -164 -126 -110 0 -190 58 -215 157 -23 91 23 182 123 241 40 23 58 27
122 27 110 0 143 -23 290 -198 71 -83 136 -124 215 -132 35 -4 77 -2 101 4 80
21 161 117 178 208 7 43 -13 35 -42 -15 -74 -133 -215 -160 -309 -61 -118 124
-75 306 94 397 68 37 126 41 181 13z m12542 -9 c0 -4 -47 -32 -105 -61 -153
-77 -333 -174 -475 -256 -154 -88 -174 -96 -140 -60 26 27 170 138 250 192 78
53 282 146 370 169 98 26 100 27 100 16z m-4570 -11 c0 -19 -177 -286 -203
-305 -31 -23 -45 -15 -29 17 21 42 36 97 29 104 -9 8 -75 -54 -83 -79 -3 -10
-11 -18 -18 -18 -7 0 -30 -11 -50 -25 -56 -38 -59 -31 -14 35 23 33 38 63 34
67 -4 5 -30 -4 -57 -20 -35 -19 -49 -23 -49 -13 0 7 13 19 29 26 16 6 37 20
47 31 9 10 21 19 25 19 5 0 32 14 61 32 57 35 258 137 271 138 4 0 7 -4 7 -9z
m-7061 -155 c15 -8 33 -21 40 -29 10 -13 4 -16 -41 -22 -106 -14 -174 -62
-203 -144 -23 -65 -20 -81 13 -81 76 0 79 -59 7 -130 -37 -36 -51 -44 -93 -48
-69 -6 -109 16 -192 105 -55 60 -72 74 -89 68 -32 -10 -65 31 -90 114 -12 40
-21 81 -19 92 3 18 5 18 46 -4 43 -21 60 -38 169 -164 55 -64 102 -93 150 -93
34 0 75 20 81 39 5 14 -13 13 -75 -5 -36 -10 -63 27 -63 86 0 86 55 166 142
208 53 26 174 30 217 8z m6601 -114 c0 -11 -37 -32 -44 -25 -8 9 14 33 30 33
8 0 14 -3 14 -8z m-3700 -28 c41 -8 121 -30 177 -49 192 -64 346 -135 293
-135 -64 0 -660 181 -660 201 0 11 84 3 190 -17z m-18170 0 c127 -10 271 -50
468 -129 136 -55 134 -68 -8 -40 -67 13 -206 43 -300 65 -101 24 -296 60 -372
70 -49 7 -88 16 -88 21 0 14 122 29 190 23 19 -2 69 -6 110 -10z m15379 -15
c22 -65 5 -148 -34 -163 -33 -12 -75 -5 -99 17 -31 27 -55 110 -40 135 12 18
80 39 131 41 26 1 33 -4 42 -30z m2331 -23 c123 -21 210 -44 290 -78 14 -6 34
-14 45 -18 134 -51 109 -62 -61 -25 -102 22 -201 48 -409 106 -34 10 -37 13
-20 20 29 11 60 10 155 -5z m10281 0 c52 -8 108 -17 124 -21 118 -27 447 -138
480 -162 18 -13 15 -14 -40 -8 -79 9 -199 30 -305 54 -47 10 -139 31 -205 45
-244 53 -384 89 -379 98 8 13 222 9 325 -6z"/>
<path d="M25497 1014 c-3 -3 -77 -39 -164 -79 -87 -40 -212 -98 -278 -129
-241 -115 -464 -199 -890 -336 -55 -17 -230 -62 -262 -67 -46 -7 -41 -24 5
-19 20 3 69 8 107 11 288 24 658 135 1005 303 145 70 497 283 515 312 6 11
-27 14 -38 4z"/>
<path d="M21850 831 c0 -4 19 -11 43 -14 64 -9 207 -41 472 -107 247 -61 339
-81 460 -99 39 -6 101 -15 138 -21 109 -17 411 -23 552 -11 214 17 490 73 680
136 81 27 128 54 71 41 -566 -134 -961 -149 -1488 -56 -127 22 -170 30 -338
63 -301 60 -590 93 -590 68z"/>
<path d="M28345 730 c-3 -5 1 -10 9 -10 8 0 18 5 21 10 3 6 -1 10 -9 10 -8 0
-18 -4 -21 -10z"/>
<path d="M5417 1333 c-4 -3 -7 -19 -7 -35 0 -33 47 -88 75 -88 34 0 73 30 85
65 19 58 11 65 -73 65 -41 0 -77 -3 -80 -7z"/>
<path d="M7055 993 c-55 -24 -136 -59 -180 -77 -44 -19 -147 -63 -230 -99
-428 -185 -596 -248 -862 -322 -98 -27 -130 -45 -80 -45 57 0 202 23 313 50
291 70 578 189 934 388 128 72 240 141 240 148 0 12 -47 -3 -135 -43z"/>
<path d="M3582 825 c-46 -7 -86 -16 -89 -18 -6 -7 93 -15 262 -22 166 -6 262
-20 558 -79 261 -52 323 -62 478 -76 286 -25 697 1 939 61 85 21 180 52 180
58 0 4 -53 0 -117 -10 -225 -32 -330 -39 -573 -39 -303 1 -480 17 -844 80
-351 61 -602 75 -794 45z"/>
<path d="M22916 1329 c-11 -7 -41 -9 -77 -5 -57 7 -59 6 -59 -16 0 -28 33 -83
57 -96 19 -11 51 -15 95 -13 32 1 83 42 105 84 14 28 14 31 -3 44 -21 16 -92
17 -118 2z"/>
<path d="M23720 1331 c-36 -10 -38 -50 -4 -84 44 -44 93 -32 119 30 9 20 12
40 8 44 -12 11 -95 19 -123 10z"/>
<path d="M19307 1143 c-36 -6 -93 -63 -102 -103 -21 -94 111 -174 205 -125 62
32 80 129 34 184 -21 25 -84 55 -104 49 -3 0 -18 -3 -33 -5z"/>
<path d="M17850 789 c-60 -24 -100 -90 -85 -139 3 -11 26 -32 51 -46 38 -22
54 -26 103 -22 84 6 111 27 111 84 0 55 -21 89 -71 115 -42 21 -71 23 -109 8z"/>
<path d="M1830 1363 c-92 -9 -288 -56 -420 -100 -152 -52 -400 -184 -400 -213
0 -10 58 8 106 33 115 59 418 154 709 222 181 43 188 45 155 55 -26 8 -88 9
-150 3z"/>
<path d="M33900 1360 c-30 -3 -48 -9 -40 -12 17 -7 129 -35 290 -73 236 -54
381 -102 558 -182 79 -35 148 -62 155 -60 14 5 -123 96 -233 155 -104 56 -186
87 -320 121 -190 48 -306 62 -410 51z"/>
</g>
</svg>
