<?xml version="1.0" standalone="no"?>
<!DOCTYPE svg PUBLIC "-//W3C//DTD SVG 20010904//EN"
 "http://www.w3.org/TR/2001/REC-SVG-20010904/DTD/svg10.dtd">
<svg version="1.0" xmlns="http://www.w3.org/2000/svg"
 width="3194.000000pt" height="368.000000pt" viewBox="0 0 3194.000000 368.000000"
 preserveAspectRatio="xMidYMid meet">

<g transform="translate(0.000000,368.000000) scale(0.100000,-0.100000)"
fill="#000000" stroke="none">
<path d="M15960 3348 c0 -30 -63 -141 -133 -235 -93 -123 -119 -169 -147 -257
-41 -125 -17 -316 60 -493 6 -13 14 -33 20 -45 28 -65 108 -279 119 -318 7
-25 11 -64 9 -85 l-4 -40 -17 40 c-10 22 -32 74 -50 115 -37 87 -128 230 -189
297 -68 73 -177 155 -274 205 -97 50 -209 92 -222 84 -11 -6 4 -112 30 -206
43 -161 110 -260 333 -490 362 -375 415 -492 450 -1004 8 -116 15 -215 15
-221 -1 -22 -30 55 -50 130 -53 204 -177 469 -303 654 -102 147 -178 233 -303
341 -60 51 -154 136 -209 188 -112 106 -190 164 -285 215 -66 34 -220 97 -240
97 -13 0 27 -71 94 -165 182 -257 280 -341 611 -521 109 -59 105 -58 105 -47
-1 14 -63 78 -105 106 -28 19 -34 27 -21 27 56 0 213 -148 309 -290 146 -216
294 -579 352 -865 12 -58 35 -265 35 -313 0 -8 9 -12 23 -10 20 3 23 12 38
118 22 154 36 227 66 340 50 192 174 499 267 662 68 119 229 308 263 308 6 0
13 6 16 13 2 6 8 9 12 5 4 -4 -6 -19 -23 -33 -26 -22 -112 -144 -112 -160 0
-12 63 52 70 71 5 12 30 33 57 46 98 51 270 154 325 195 94 70 208 191 310
327 102 136 125 172 116 182 -10 9 -188 -55 -271 -98 -115 -60 -147 -87 -412
-343 -275 -267 -363 -375 -458 -565 -34 -69 -73 -150 -86 -180 -56 -132 -124
-352 -136 -440 -3 -25 -10 -52 -16 -60 -7 -10 -8 57 -4 220 10 392 59 588 194
782 62 89 81 110 285 318 242 249 287 328 336 598 6 34 8 67 5 72 -7 11 -124
-29 -220 -77 -205 -103 -359 -273 -486 -537 -28 -58 -55 -108 -60 -111 -24
-15 28 169 116 410 112 305 130 397 101 517 -22 94 -49 148 -131 263 -93 130
-130 191 -145 238 -11 35 -30 51 -30 25z m66 -541 c9 -16 22 -50 30 -76 16
-53 19 -221 4 -221 -5 0 -10 22 -10 50 0 92 -47 250 -74 250 -7 0 -24 -26 -39
-57 -30 -67 -34 -80 -59 -193 l-18 -85 5 95 c6 138 50 261 99 280 25 9 42 -2
62 -43z m600 -445 c-25 -37 -58 -81 -74 -99 -15 -17 -40 -46 -54 -65 -14 -18
-28 -31 -31 -28 -3 3 40 67 96 142 102 137 149 174 63 50z m-1261 -33 c22 -28
51 -66 65 -83 71 -86 79 -108 16 -42 -80 83 -156 182 -156 204 0 17 9 8 75
-79z m645 -695 c7 -143 6 -190 -4 -230 -22 -78 -36 -108 -46 -98 -27 27 -42
387 -19 469 15 55 28 70 46 52 9 -9 16 -65 23 -193z m697 80 c-3 -3 -12 -4
-19 -1 -8 3 -5 6 6 6 11 1 17 -2 13 -5z"/>
<path d="M11520 2761 c-93 -22 -87 -30 20 -31 150 -1 347 -31 456 -70 32 -11
65 -20 74 -20 30 0 -84 52 -188 86 -88 29 -124 36 -217 39 -60 2 -126 0 -145
-4z"/>
<path d="M20230 2764 c-91 -12 -257 -62 -320 -97 -88 -49 -88 -59 0 -28 148
52 394 101 506 101 30 0 44 4 39 9 -11 11 -172 21 -225 15z"/>
<path d="M11368 2703 c-52 -8 -28 -21 50 -27 131 -11 232 -27 367 -58 189 -43
266 -70 553 -195 6 -3 12 -1 12 3 0 12 -141 97 -205 125 -27 12 -70 30 -94 41
-89 40 -141 57 -261 83 -119 27 -335 41 -422 28z"/>
<path d="M20235 2696 c-149 -26 -387 -116 -546 -208 -98 -56 -123 -96 -31 -49
51 26 250 111 287 123 31 10 102 29 195 54 81 21 263 52 358 60 45 4 85 10 87
14 13 22 -232 26 -350 6z"/>
<path d="M12993 2684 c-3 -8 1 -22 8 -29 36 -35 529 -397 571 -420 l48 -26 0
24 c0 27 -62 86 -238 225 -130 103 -339 242 -364 242 -10 0 -21 -7 -25 -16z"/>
<path d="M18820 2637 c-209 -137 -464 -344 -476 -385 -18 -62 10 -46 310 176
287 212 312 233 303 255 -11 29 -38 19 -137 -46z"/>
<path d="M11058 2624 c-10 -3 -18 -9 -18 -14 0 -11 72 -73 107 -90 15 -8 82
-49 148 -91 243 -155 390 -210 660 -249 44 -6 107 -15 140 -20 33 -5 107 -16
165 -25 58 -8 133 -20 168 -25 186 -30 285 -42 502 -65 157 -17 273 -36 265
-44 -14 -14 -173 -60 -305 -88 -144 -30 -449 -17 -547 23 -30 13 -34 13 -40
-2 -27 -70 276 -140 498 -114 131 14 274 49 420 99 102 36 239 70 399 99 148
27 180 36 180 46 0 39 -63 44 -301 25 -150 -12 -324 -2 -536 32 -185 29 -237
48 -558 211 -172 87 -276 130 -475 194 -248 80 -343 96 -620 100 -129 1 -243
0 -252 -2z"/>
<path d="M20425 2623 c-277 -36 -575 -137 -950 -322 -216 -108 -291 -138 -390
-160 -233 -53 -425 -68 -670 -54 -183 10 -255 4 -255 -22 0 -13 31 -21 170
-45 136 -23 282 -59 359 -87 284 -104 457 -135 638 -114 59 7 132 19 162 28
31 8 66 17 78 20 27 6 63 39 63 58 0 19 -2 19 -98 -5 -99 -25 -368 -31 -472
-10 -83 16 -233 58 -279 78 l-36 15 75 13 c41 6 118 17 170 23 90 12 310 40
465 61 60 8 145 21 470 70 253 38 361 67 523 142 106 49 418 254 445 293 l18
25 -228 -1 c-125 -1 -241 -4 -258 -6z"/>
<path d="M10800 2585 c-84 -15 -130 -30 -212 -71 -95 -46 -146 -83 -211 -154
-88 -95 -133 -184 -162 -323 -19 -89 -19 -124 -1 -207 39 -183 134 -314 276
-382 56 -27 75 -31 141 -30 56 1 89 7 121 22 74 34 129 106 108 140 -6 9 -24
3 -67 -24 -80 -50 -155 -69 -208 -54 -65 17 -105 38 -146 75 -92 83 -145 190
-155 311 -8 103 7 180 57 281 76 154 216 267 395 320 39 12 86 21 104 21 56 0
161 23 157 34 -7 22 -71 56 -101 55 -17 -1 -60 -7 -96 -14z"/>
<path d="M20975 2575 c-43 -42 -37 -46 110 -60 95 -10 243 -60 312 -105 291
-191 362 -564 152 -794 -59 -64 -133 -106 -202 -113 -66 -7 -117 7 -191 52
-32 19 -62 32 -67 29 -16 -9 -10 -38 16 -76 56 -82 215 -114 337 -68 119 44
233 173 279 315 30 91 32 249 5 340 -79 262 -273 428 -568 490 -108 22 -154
20 -183 -10z"/>
<path d="M13729 2554 c-7 -18 -9 -66 -6 -125 4 -82 10 -107 37 -163 36 -77
124 -176 205 -231 30 -21 55 -39 55 -41 0 -1 -33 -7 -72 -13 -123 -19 -190
-32 -258 -47 -81 -20 -261 -79 -317 -104 -24 -11 -45 -20 -49 -20 -11 0 -244
-121 -379 -197 -269 -152 -447 -225 -616 -253 -97 -16 -309 -9 -366 12 -23 8
-84 43 -136 76 -115 75 -168 91 -233 74 -61 -16 -112 -52 -146 -103 -22 -34
-28 -53 -28 -98 1 -227 277 -302 411 -112 l40 57 67 -7 c93 -11 294 -12 372
-4 129 14 274 61 400 128 30 17 125 71 210 122 474 282 848 387 1259 355 162
-13 281 -32 416 -66 55 -14 116 -29 136 -34 74 -19 210 -71 324 -125 65 -31
133 -59 149 -62 l31 -6 -42 40 c-23 22 -95 75 -160 118 -100 65 -146 106 -296
259 -98 99 -199 212 -224 249 -25 38 -57 73 -70 78 -27 10 -96 12 -105 3 -3
-3 10 -35 28 -71 40 -76 36 -95 -8 -40 -50 62 -145 121 -291 180 -129 52 -190
89 -294 173 l-33 26 -11 -28z"/>
<path d="M18125 2524 c-56 -50 -222 -144 -255 -144 -8 0 -55 -20 -105 -44 -66
-33 -106 -60 -152 -107 -68 -68 -77 -65 -38 11 38 75 35 85 -27 85 l-53 0 -50
-70 c-27 -38 -81 -102 -120 -141 -38 -38 -106 -110 -150 -159 -90 -100 -166
-163 -351 -291 -78 -53 -123 -90 -113 -92 16 -3 56 12 289 111 58 24 132 52
165 61 33 10 71 22 85 26 132 44 504 100 660 100 78 0 280 -24 370 -44 106
-23 307 -94 425 -151 61 -29 189 -99 285 -155 304 -179 335 -195 425 -222 134
-41 323 -61 454 -48 47 5 113 11 147 13 l60 5 24 -45 c35 -66 128 -123 203
-123 75 0 161 50 194 113 11 20 17 56 17 97 0 74 -28 129 -86 173 -95 71 -163
62 -325 -42 -43 -27 -100 -57 -128 -67 -75 -26 -261 -31 -383 -9 -193 35 -320
88 -617 260 -253 146 -383 207 -560 262 -161 50 -205 60 -354 83 -68 11 -128
23 -133 28 -6 6 8 16 34 26 63 26 178 147 218 231 26 54 33 85 38 150 5 95 -4
175 -21 175 -7 -1 -39 -26 -72 -56z"/>
<path d="M12875 2388 c-16 -6 -38 -18 -48 -27 -18 -15 -18 -16 3 -33 55 -45
171 7 130 57 -14 17 -42 18 -85 3z"/>
<path d="M18976 2384 c-10 -27 -7 -34 27 -54 38 -24 90 -26 107 -5 19 23 5 41
-46 59 -60 20 -80 20 -88 0z"/>
<path d="M11172 2157 c-41 -18 -41 -90 -1 -100 48 -13 89 27 74 71 -8 27 -45
41 -73 29z"/>
<path d="M20732 2154 c-24 -17 -30 -62 -10 -82 7 -7 27 -12 45 -12 55 0 67 53
19 92 -26 22 -26 22 -54 2z"/>
<path d="M444 2116 c-3 -8 -4 -23 -2 -33 3 -17 160 -18 4175 -21 l4172 -2 6
20 c4 12 1 27 -5 35 -19 22 -8338 22 -8346 1z"/>
<path d="M23154 2116 c-3 -8 -4 -23 -2 -33 3 -17 158 -18 4173 -18 l4170 0 0
30 0 30 -4168 3 c-3623 2 -4168 0 -4173 -12z"/>
<path d="M9049 2085 c-82 -44 -85 -170 -6 -212 46 -23 112 -12 149 24 56 57
35 157 -40 188 -43 18 -69 18 -103 0z"/>
<path d="M22789 2077 c-44 -29 -74 -85 -66 -119 11 -42 53 -85 94 -95 102 -26
186 74 142 170 -13 29 -77 67 -111 67 -14 0 -40 -10 -59 -23z"/>
<path d="M38 1943 c-33 -4 -38 -8 -38 -29 l0 -24 4401 0 4400 0 -3 28 -3 27
-4360 1 c-2398 0 -4377 -1 -4397 -3z"/>
<path d="M23152 1918 c2 -24 8 -33 21 -32 9 0 1986 1 4392 2 l4375 2 0 30 0
30 -4396 0 -4395 0 3 -32z"/>
<path d="M13985 1695 c-140 -22 -314 -71 -412 -116 -24 -10 -46 -19 -49 -19
-13 0 -227 -111 -282 -147 -229 -145 -420 -335 -575 -569 -147 -223 -241 -320
-397 -407 -67 -37 -65 -52 5 -43 132 15 346 154 451 292 38 49 48 42 17 -13
-43 -80 -113 -154 -193 -204 -125 -80 -125 -80 -55 -73 87 9 240 40 315 65
200 65 388 186 695 444 66 55 143 117 171 137 174 123 438 224 698 268 78 13
297 13 372 -1 228 -40 456 -162 631 -335 78 -78 136 -154 118 -154 -3 0 -36
16 -74 35 -173 88 -365 128 -552 113 -203 -15 -304 -84 -464 -315 -51 -74
-100 -133 -133 -158 -28 -22 -51 -43 -51 -46 -1 -4 56 -10 127 -14 137 -7 257
4 338 30 73 25 192 91 249 139 78 66 106 83 173 105 90 31 185 26 310 -15 157
-52 279 -163 353 -323 33 -70 44 -82 67 -74 12 5 13 19 8 72 -14 156 -128 426
-270 640 -167 253 -307 381 -541 496 -197 97 -407 165 -590 190 -122 17 -352
17 -460 0z m400 -92 c36 -6 38 -7 15 -14 -14 -4 -46 -7 -71 -8 -51 -1 -209
-33 -284 -58 -76 -24 -229 -104 -330 -170 -114 -76 -224 -190 -382 -398 -128
-169 -250 -295 -285 -295 -7 0 -1 8 12 17 39 27 125 121 187 203 141 189 180
239 229 300 214 266 647 467 909 423z m291 -192 c5 -5 25 -11 44 -13 19 -2
-71 -3 -200 -4 -159 0 -216 2 -175 8 33 4 64 10 70 12 20 9 251 6 261 -3z m65
-701 c-40 -36 -140 -94 -147 -87 -7 6 156 117 171 117 5 0 -5 -14 -24 -30z"/>
<path d="M17535 1699 c-148 -25 -183 -32 -210 -40 -403 -119 -599 -223 -780
-410 -202 -209 -409 -629 -440 -892 l-8 -59 28 4 c23 2 31 11 43 45 27 72 123
204 186 255 113 91 303 143 436 120 80 -14 120 -34 212 -108 92 -74 198 -130
294 -154 64 -16 112 -20 262 -20 104 0 182 4 182 9 0 5 -15 18 -32 30 -51 31
-129 117 -201 221 -96 140 -159 193 -279 238 -199 74 -537 23 -760 -115 -67
-41 -44 0 58 106 166 173 317 270 529 339 127 42 248 56 412 49 177 -7 325
-43 540 -132 175 -72 270 -136 507 -339 199 -170 266 -217 446 -313 132 -70
219 -98 395 -128 103 -17 149 -19 141 -6 -4 5 -37 26 -74 47 -37 21 -91 62
-119 91 -50 51 -133 163 -133 180 0 4 37 -29 83 -73 108 -106 175 -157 261
-199 148 -72 284 -79 156 -8 -139 77 -240 181 -373 382 -120 181 -243 323
-380 437 -283 237 -594 382 -947 440 -93 15 -354 17 -435 3z m279 -113 c269
-57 531 -230 706 -466 31 -41 96 -130 145 -198 49 -67 121 -154 161 -192 78
-76 83 -90 13 -36 -45 34 -119 116 -172 189 -86 119 -264 331 -323 386 -163
149 -374 251 -613 295 -46 9 -109 16 -140 17 -31 0 -65 4 -76 9 -35 15 224 11
299 -4z m-219 -183 c36 -6 -13 -9 -175 -9 -128 0 -200 3 -167 7 32 3 61 10 65
13 8 9 211 1 277 -11z m-302 -726 c86 -57 104 -73 70 -60 -50 19 -183 109
-183 124 0 6 5 6 13 2 6 -4 51 -34 100 -66z"/>
<path d="M12530 1231 c-77 -25 -206 -77 -440 -176 -460 -195 -613 -239 -830
-239 -144 -1 -214 13 -429 81 -227 72 -387 161 -515 287 -84 84 -79 73 63
-126 191 -267 488 -472 777 -538 81 -18 239 -26 333 -18 286 27 604 189 889
451 103 96 282 286 282 301 0 12 -47 4 -130 -23z m-1445 -561 c58 -8 57 -8
-26 -5 -48 1 -95 8 -105 14 -20 13 -5 12 131 -9z"/>
<path d="M19290 1251 c0 -30 284 -320 420 -430 301 -242 664 -362 976 -321
100 13 257 58 349 101 123 57 292 182 403 299 36 38 124 151 239 307 41 56 25
47 -53 -28 -162 -159 -320 -240 -606 -313 -376 -96 -614 -62 -1093 154 -64 29
-387 162 -415 171 -14 4 -63 21 -110 38 -89 33 -110 37 -110 22z m1720 -551
c0 -5 -8 -10 -17 -10 -15 0 -16 2 -3 10 19 12 20 12 20 0z m-52 -21 c-10 -5
-39 -11 -65 -13 -27 -2 -37 -2 -23 1 14 2 29 9 35 14 5 5 23 9 40 9 25 -1 27
-2 13 -11z"/>
<path d="M14050 1055 c-132 -22 -230 -79 -304 -177 -80 -107 -90 -302 -22
-462 38 -89 151 -232 209 -262 34 -18 35 -6 1 47 -84 134 -108 310 -61 450
l14 42 6 -99 c5 -105 31 -204 54 -204 9 0 13 17 13 64 0 207 78 375 231 499
50 41 166 97 201 98 22 0 22 1 3 9 -30 13 -259 10 -345 -5z m-180 -187 c-12
-18 -36 -62 -53 -98 -31 -63 -32 -69 -31 -185 1 -97 6 -136 26 -202 26 -87 22
-106 -12 -50 -37 60 -53 136 -53 252 0 102 2 115 30 175 27 57 91 140 109 140
3 0 -4 -15 -16 -32z"/>
<path d="M17552 1062 c-8 -6 1 -13 30 -22 92 -29 177 -81 242 -150 110 -117
156 -247 156 -440 0 -80 3 -98 14 -94 20 8 55 128 62 214 3 41 8 82 11 90 11
32 33 -78 33 -166 0 -125 -27 -209 -97 -302 -31 -42 -24 -50 20 -23 45 28 106
94 148 162 59 93 81 148 98 240 25 129 -26 279 -121 363 -71 63 -177 113 -264
126 -83 12 -314 13 -332 2z m545 -199 c34 -30 89 -125 101 -175 7 -26 12 -66
12 -90 0 -94 -48 -258 -85 -288 -14 -12 -14 -13 24 125 40 141 22 282 -49 398
-32 52 -33 55 -3 30z"/>
</g>
</svg>
